<?xml version="1.0" encoding="utf-8"?>
<!-- Generator: Adobe Illustrator 19.2.1, SVG Export Plug-In . SVG Version: 6.00 Build 0)  -->
<svg version="1.1" id="Layer_1" xmlns="http://www.w3.org/2000/svg" xmlns:xlink="http://www.w3.org/1999/xlink" x="0px" y="0px"
	 viewBox="0 0 297.6 297.6" style="enable-background:new 0 0 297.6 297.6;" xml:space="preserve">
<style type="text/css">
	.st0{fill:#2F318F;}
	.st1{fill:#D0A94A;}
</style>
<rect class="st0" width="297.6" height="297.6"/>
<path class="st1" d="M48,256.6l24.4-11.5c5.8-2.7,9.3-7,10.8-13.2c0.4-1.7,1.2-6.7,1.2-20.8V86.6c0-14.1-0.7-19.1-1.1-20.8
	c-1.5-6.2-5.1-10.5-10.8-13.2L47.9,41.1h120.3l-24.5,11.5c-5.8,2.7-9.3,7-10.8,13.2c-0.4,1.7-1.1,6.7-1.1,20.8V220
	c14,1.7,27.6,2.5,40.6,2.5c11.8,0,22.1-1.3,30.6-3.8c8.5-2.6,18.4-7.3,29.3-14.2l17.5-11.1l-28.5,63.2H48z"/>
</svg>
